<svg width="32" height="18" viewBox="0 0 32 18" fill="none" xmlns="http://www.w3.org/2000/svg">
<path d="M22.8419 13.0955C22.1236 13.0955 21.5393 12.514 21.5393 11.7996C21.5393 11.0853 22.1236 10.5043 22.8419 10.5043C23.5604 10.5043 24.1447 11.0852 24.1447 11.7996C24.1447 12.5141 23.5604 13.0955 22.8419 13.0955ZM8.44297 13.0955C7.72466 13.0955 7.14035 12.514 7.14035 11.7996C7.14035 11.0853 7.72454 10.5043 8.44297 10.5043C9.16129 10.5043 9.7456 11.0852 9.7456 11.7996C9.7456 12.5141 9.16141 13.0955 8.44297 13.0955ZM23.3092 5.29187L25.9128 0.807691C25.9844 0.683938 26.0038 0.536967 25.9666 0.399026C25.9295 0.261085 25.8388 0.14344 25.7145 0.0719062C25.59 0.000668704 25.4423 -0.0185803 25.3036 0.0183808C25.1649 0.0553419 25.0466 0.145495 24.9746 0.269071L22.3385 4.80993C20.3224 3.89512 18.0584 3.38543 15.6425 3.38543C13.2265 3.38543 10.9625 3.89512 8.94657 4.80993L6.31032 0.269071C6.23837 0.145495 6.12007 0.0553419 5.98136 0.0183808C5.84266 -0.0185803 5.69488 0.000668704 5.57043 0.0719062C5.44607 0.143373 5.35533 0.261019 5.31815 0.398988C5.28097 0.536957 5.3004 0.68396 5.37216 0.807691L7.97574 5.29187C3.50502 7.70991 0.447323 12.2108 0 17.5284H31.2849C30.8372 12.2109 27.7795 7.70991 23.3092 5.29176" fill="#3DDB85"/>
</svg>
