<svg width="50" height="23" viewBox="0 0 50 23" fill="none" xmlns="http://www.w3.org/2000/svg">
<path d="M33.9855 22.1742L34.24 21.2943C34.5433 20.2476 34.4305 19.2799 33.9216 18.569C33.4533 17.9142 32.673 17.5285 31.7253 17.4837L13.7761 17.2566C13.7204 17.2555 13.6657 17.2413 13.6166 17.2152C13.5673 17.1891 13.5251 17.1518 13.4929 17.1063C13.4616 17.0592 13.4415 17.0055 13.4344 16.9494C13.4275 16.8932 13.4337 16.8362 13.4526 16.7829C13.4834 16.695 13.5393 16.618 13.6133 16.5615C13.6875 16.505 13.7765 16.4714 13.8696 16.4648L31.985 16.2353C34.1339 16.1366 36.4606 14.3943 37.2751 12.2695L38.3081 9.57206C38.3505 9.45799 38.3602 9.33441 38.3362 9.21517C37.1632 3.94272 32.4542 0 26.8239 0C21.6363 0 17.2317 3.34576 15.6517 7.99618C14.5841 7.19542 13.2529 6.8273 11.9253 6.96554C9.43651 7.21249 7.43547 9.21476 7.1891 11.7021C7.12596 12.3231 7.17215 12.9505 7.32596 13.5556C3.26038 13.674 0 17.0024 0 21.0938C0.000519031 21.459 0.0275055 21.8237 0.0807927 22.1851C0.0925574 22.2685 0.133909 22.345 0.197403 22.4005C0.260898 22.4561 0.342388 22.4869 0.426644 22.4874L33.564 22.4915C33.5671 22.4917 33.5702 22.4917 33.5734 22.4915C33.6671 22.4898 33.7578 22.4581 33.832 22.401C33.9062 22.3438 33.96 22.2644 33.9855 22.1742Z" fill="#F6821F"/>
<path d="M39.9649 9.7677C39.7986 9.7677 39.6329 9.77189 39.4678 9.78023C39.4412 9.78213 39.415 9.78786 39.3901 9.79722C39.3469 9.81199 39.3078 9.83703 39.2763 9.87017C39.2448 9.90332 39.2218 9.94362 39.2093 9.98758L38.5036 12.4235C38.2002 13.4703 38.313 14.4371 38.8223 15.1481C39.2903 15.8036 40.0706 16.1884 41.0182 16.2333L44.8446 16.4628C44.8984 16.4646 44.951 16.4789 44.9984 16.5046C45.0457 16.5303 45.0863 16.5666 45.1171 16.6108C45.1489 16.6581 45.1692 16.7121 45.1761 16.7686C45.1832 16.8252 45.1768 16.8825 45.1576 16.9361C45.1268 17.0239 45.0709 17.1007 44.997 17.1572C44.9232 17.2137 44.8342 17.2474 44.7415 17.2542L40.7657 17.4838C38.6071 17.5833 36.281 19.3248 35.4671 21.4495L35.1799 22.1997C35.168 22.231 35.1635 22.2648 35.1671 22.2982C35.1708 22.3315 35.1822 22.3637 35.2007 22.3917C35.2192 22.4198 35.2439 22.4431 35.2732 22.4597C35.3024 22.4762 35.3353 22.4857 35.3688 22.4871C35.3725 22.4871 35.3758 22.4871 35.3794 22.4871H49.0597C49.1393 22.4878 49.2168 22.4625 49.2806 22.4149C49.3443 22.3674 49.3908 22.3004 49.4128 22.2239C49.6552 21.3597 49.7777 20.4665 49.7768 19.5689C49.7752 14.1562 45.3829 9.7677 39.9649 9.7677Z" fill="#FBAD41"/>
</svg>
