<svg width="28" height="31" viewBox="0 0 28 31" fill="none" xmlns="http://www.w3.org/2000/svg">
<path d="M27.5602 9.05661C27.56 8.53864 27.4486 8.08094 27.2234 7.68823C27.0021 7.30184 26.6707 6.97808 26.2262 6.7221C22.557 4.61816 18.8842 2.52066 15.2162 0.414578C14.2273 -0.15315 13.2685 -0.132345 12.2869 0.443532C10.8265 1.29995 3.51447 5.4659 1.33558 6.72092C0.438257 7.2376 0.00161758 8.02818 0.0014019 9.05564C0 13.2868 0.0014019 17.5179 0 21.7491C0 22.2557 0.106868 22.7046 0.322222 23.0914C0.543615 23.4894 0.879641 23.822 1.3344 24.0838C3.51339 25.3388 10.8264 29.5044 12.2865 30.3612C13.2685 30.9374 14.2273 30.958 15.2165 30.3901C18.8846 28.284 22.5576 26.1865 26.2274 24.0825C26.6821 23.8208 27.0181 23.488 27.2395 23.0903C27.4546 22.7034 27.5616 22.2546 27.5616 21.7479C27.5616 21.7479 27.5616 13.2879 27.5602 9.05661Z" fill="#A179DC"/>
<path d="M13.823 15.3611L0.322266 23.0914C0.543659 23.4893 0.879684 23.822 1.33444 24.0838C3.51343 25.3388 10.8264 29.5044 12.2865 30.3611C13.2685 30.9373 14.2273 30.9579 15.2165 30.3901C18.8847 28.2839 22.5576 26.1864 26.2274 24.0825C26.6822 23.8208 27.0182 23.4879 27.2396 23.0903L13.823 15.3611Z" fill="#280068"/>
<path d="M27.5603 9.05662C27.5601 8.53865 27.4487 8.08095 27.2234 7.68823L13.823 15.3613L27.2396 23.0904C27.4546 22.7034 27.5615 22.2546 27.5617 21.7479C27.5617 21.7479 27.5617 13.2879 27.5603 9.05662" fill="#390091"/>
<path d="M21.7717 12.4713V13.9163H23.2247V12.4713H23.9512V13.9163H25.4043V14.6387H23.9512V16.0836H25.4043V16.806H23.9512V18.251H23.2247V16.806H21.7717V18.251H21.0452V16.806H19.5923V16.0836H21.0452V14.6387H19.5923V13.9163H21.0452V12.4713H21.7717ZM23.2247 14.6386H21.7717V16.0836H23.2247V14.6386Z" fill="white"/>
<path d="M13.8526 5.21458C17.6425 5.21458 20.9513 7.26136 22.7236 10.3038L22.7064 10.2745L18.2472 12.8276C17.3688 11.3485 15.7583 10.3502 13.9107 10.3296L13.8525 10.3293C11.0352 10.3293 8.75116 12.6006 8.75116 15.4023C8.75023 16.2853 8.98222 17.1532 9.42396 17.9192C10.3033 19.4457 11.9563 20.4754 13.8526 20.4754C15.7606 20.4754 17.423 19.4327 18.2978 17.8898L18.2766 17.9268L22.7289 20.4918C20.976 23.5084 17.7125 25.5489 13.9667 25.5895L13.8526 25.5902C10.0507 25.5902 6.73252 23.5307 4.96462 20.4722C4.10158 18.9791 3.60779 17.2482 3.60779 15.4023C3.60779 9.77582 8.19439 5.21448 13.8525 5.21448L13.8526 5.21458Z" fill="white"/>
</svg>
