<svg width="49" height="38" viewBox="0 0 49 38" fill="none" xmlns="http://www.w3.org/2000/svg">
<path d="M0 37.0968L23.3871 0H37.9032V5.16129L17.7419 37.0968" fill="#FBBC04"/>
<path d="M37.9033 37.0968H23.3872V0H37.9033V37.0968Z" fill="#1A73E8"/>
<path d="M48.3872 26.6129C48.3872 32.4031 43.6936 37.0968 37.9033 37.0968V16.129C43.6936 16.129 48.3872 20.8226 48.3872 26.6129Z" fill="#34A853"/>
<path d="M37.9033 37.0968C32.1129 37.0968 27.4196 32.4031 27.4196 26.6129C27.4196 20.8226 32.1129 16.129 37.9033 16.129V37.0968Z" fill="#0D652D"/>
<path d="M45.9678 8.06445C45.9678 12.5176 42.3582 16.129 37.9033 16.129V0C42.3582 0 45.9678 3.61126 45.9678 8.06445Z" fill="#1A73E8"/>
<path d="M37.9032 16.129C33.4484 16.129 29.8389 12.5176 29.8389 8.06445C29.8389 3.61126 33.4484 0 37.9032 0V16.129Z" fill="#174EA6"/>
<path d="M0.806519 7.25806C0.806519 3.25 4.05652 0 8.06458 0C12.0726 0 15.3226 3.25 15.3226 7.25806C15.3226 11.2661 12.0726 14.5161 8.06458 14.5161C4.05652 14.5161 0.806519 11.2661 0.806519 7.25806Z" fill="#EA4335"/>
</svg>
