<svg width="23" height="32" viewBox="0 0 23 32" fill="none" xmlns="http://www.w3.org/2000/svg">
<path d="M7.38972 24.06C7.38972 24.06 6.20088 24.7513 8.23582 24.9853C10.7012 25.2665 11.9611 25.2262 14.6779 24.712C14.6779 24.712 15.3922 25.1598 16.3897 25.5478C10.2994 28.158 2.60605 25.3966 7.38972 24.06V24.06ZM6.6455 20.6538C6.6455 20.6538 5.31208 21.6409 7.34856 21.8515C9.98207 22.1231 12.0618 22.1454 15.6606 21.4524C15.6606 21.4524 16.1583 21.957 16.941 22.233C9.57744 24.3862 1.37577 22.4028 6.6455 20.6538" fill="#5382A1"/>
<path d="M12.9195 14.8759C14.4201 16.6036 12.5252 18.1584 12.5252 18.1584C12.5252 18.1584 16.3356 16.1913 14.5856 13.7281C12.9513 11.4311 11.6978 10.2896 18.4831 6.35449C18.4831 6.35449 7.83251 9.01449 12.9195 14.8758" fill="#E76F00"/>
<path d="M20.9743 26.5794C20.9743 26.5794 21.8541 27.3043 20.0054 27.8651C16.49 28.9301 5.37387 29.2517 2.28583 27.9075C1.1758 27.4247 3.2575 26.7545 3.91227 26.6138C4.59515 26.4658 4.98546 26.4934 4.98546 26.4934C3.75094 25.6237 -2.99389 28.201 1.55944 28.939C13.9769 30.9528 24.1952 28.0323 20.9743 26.5794ZM7.96135 17.1247C7.96135 17.1247 2.30709 18.4677 5.95911 18.9553C7.50106 19.1618 10.575 19.1151 13.4383 18.8751C15.7783 18.6779 18.128 18.2581 18.128 18.2581C18.128 18.2581 17.3029 18.6115 16.7059 19.0191C10.964 20.5292 -0.128342 19.8267 3.065 18.282C5.76562 16.9766 7.96144 17.1247 7.96144 17.1247H7.96135ZM18.1046 22.7944C23.9417 19.7612 21.2429 16.8465 19.3592 17.2392C18.8974 17.3353 18.6916 17.4185 18.6916 17.4185C18.6916 17.4185 18.863 17.1501 19.1903 17.0339C22.9169 15.7237 25.7829 20.8979 17.9874 22.9472C17.9874 22.9473 18.0777 22.8666 18.1046 22.7944" fill="#5382A1"/>
<path d="M14.5856 9.00765e-05C14.5856 9.00765e-05 17.8182 3.23388 11.5196 8.20626C6.46888 12.1951 10.3679 14.4694 11.5176 17.0678C8.56931 14.4078 6.40564 12.0662 7.85725 9.88683C9.98767 6.68755 15.8898 5.1365 14.5856 0" fill="#E76F00"/>
<path d="M8.53501 31.0132C14.1378 31.3719 22.7414 30.8143 22.9451 28.1632C22.9451 28.1632 22.5535 29.1683 18.3148 29.9664C13.5327 30.8662 7.63477 30.7612 4.1366 30.1844C4.13669 30.1844 4.85271 30.7772 8.5351 31.0132" fill="#5382A1"/>
</svg>
