<svg width="31" height="31" viewBox="0 0 31 31" fill="none" xmlns="http://www.w3.org/2000/svg">
<path d="M30.1879 6.99533C30.1991 7.03655 30.2048 7.07906 30.2049 7.12176V13.759C30.205 13.8442 30.1823 13.9279 30.1394 14.0016C30.0965 14.0753 30.0347 14.1365 29.9604 14.1789L24.3585 17.3862V23.7434C24.3585 23.9164 24.266 24.0761 24.1152 24.1632L12.4217 30.8574C12.3949 30.8725 12.3657 30.8822 12.3365 30.8925C12.3255 30.8961 12.3152 30.9027 12.3036 30.9058C12.2219 30.9272 12.136 30.9272 12.0542 30.9058C12.0409 30.9021 12.0287 30.8949 12.0159 30.89C11.9892 30.8804 11.9612 30.8719 11.9356 30.8574L0.24454 24.1632C0.17027 24.1208 0.108559 24.0597 0.0656271 23.9859C0.022695 23.9122 5.88474e-05 23.8286 0 23.7434L0 3.83155C0 3.78799 0.00608309 3.74565 0.0170326 3.70451C0.0206825 3.6906 0.0291988 3.67789 0.0340653 3.66398C0.0431899 3.63857 0.0517062 3.61256 0.065089 3.58897C0.0742136 3.57324 0.0875964 3.56054 0.098546 3.54602C0.112537 3.52666 0.125312 3.5067 0.141736 3.48976C0.155727 3.47585 0.173976 3.46556 0.189792 3.45347C0.207433 3.43895 0.223249 3.42322 0.243323 3.41172H0.243932L6.08978 0.0646496C6.1638 0.0222927 6.2477 0 6.3331 0C6.4185 0 6.5024 0.0222927 6.57642 0.0646496L12.4223 3.41172H12.4235C12.443 3.42382 12.4594 3.43895 12.477 3.45286C12.4928 3.46496 12.5105 3.47585 12.5245 3.48916C12.5415 3.5067 12.5537 3.52666 12.5683 3.54602C12.5786 3.56054 12.5926 3.57324 12.6011 3.58897C12.6151 3.61317 12.623 3.63857 12.6327 3.66398C12.6376 3.67789 12.6461 3.6906 12.6498 3.70512C12.661 3.74634 12.6667 3.78884 12.6668 3.83155V16.2683L17.5381 13.479V7.12115C17.5381 7.07881 17.5442 7.03586 17.5552 6.99533C17.5594 6.98081 17.5673 6.96811 17.5722 6.95419C17.5819 6.92879 17.5905 6.90277 17.6038 6.87918C17.613 6.86345 17.6263 6.85075 17.6367 6.83623C17.6513 6.81687 17.6635 6.79691 17.6805 6.77997C17.6945 6.76606 17.7121 6.75578 17.7279 6.74368C17.7462 6.72916 17.762 6.71343 17.7815 6.70194H17.7821L23.6285 3.35486C23.7025 3.31245 23.7864 3.29012 23.8719 3.29012C23.9573 3.29012 24.0412 3.31245 24.1152 3.35486L29.961 6.70194C29.9817 6.71404 29.9975 6.72916 30.0158 6.74307C30.031 6.75517 30.0486 6.76606 30.0626 6.77937C30.0796 6.79691 30.0918 6.81687 30.1064 6.83623C30.1174 6.85075 30.1307 6.86345 30.1393 6.87918C30.1532 6.90277 30.1612 6.92879 30.1709 6.95419C30.1764 6.96811 30.1843 6.98081 30.1879 6.99533V6.99533ZM29.2304 13.479V7.95959L27.1847 9.13073L24.3585 10.7489V16.2683L29.231 13.479H29.2304ZM23.3846 23.4633V17.9403L20.6046 19.5192L12.6662 24.0247V29.5997L23.3846 23.4633ZM0.97451 4.66937V23.4633L11.6917 29.5991V24.0253L6.09282 20.8742L6.09099 20.873L6.08856 20.8718C6.0697 20.8609 6.05389 20.8452 6.03625 20.8319C6.02104 20.8198 6.0034 20.8101 5.99001 20.7968L5.9888 20.795C5.97298 20.7799 5.96203 20.7611 5.94865 20.7442C5.93648 20.7278 5.92188 20.7139 5.91215 20.697L5.91154 20.6952C5.90059 20.677 5.8939 20.6552 5.88599 20.6347C5.87808 20.6165 5.86774 20.5996 5.86288 20.5802V20.5796C5.85679 20.5566 5.85558 20.5324 5.85314 20.5088C5.85071 20.4907 5.84584 20.4726 5.84584 20.4544V7.4587L3.02025 5.83991L0.97451 4.66998V4.66937ZM6.33371 1.04343L1.46298 3.83155L6.33249 6.61967L11.2026 3.83094L6.33249 1.04343H6.33371ZM8.8667 18.4436L11.6923 16.826V4.66937L9.64656 5.84052L6.82035 7.4587V19.6154L8.8667 18.4436ZM23.8719 4.33364L19.0017 7.12176L23.8719 9.90988L28.7414 7.12115L23.8719 4.33364ZM23.3846 10.7489L20.5584 9.13073L18.5127 7.95959V13.479L21.3382 15.0965L23.3846 16.2683V10.7489ZM12.1783 23.1869L19.3217 19.1314L22.8925 17.1049L18.026 14.3186L12.4229 17.5265L7.31613 20.4502L12.1783 23.1869Z" fill="#FF2D20"/>
</svg>
