<svg width="50" height="50" viewBox="0 0 50 50" fill="none" xmlns="http://www.w3.org/2000/svg">
<path d="M41.822 41.8215H34.5492V30.4321C34.5492 27.7162 34.5008 24.22 30.7667 24.22C26.9788 24.22 26.3992 27.1791 26.3992 30.2344V41.8207H19.1265V18.3995H26.1083V21.6003H26.2061C26.9048 20.4057 27.9145 19.4229 29.1275 18.7567C30.3406 18.0904 31.7117 17.7657 33.0947 17.817C40.4659 17.817 41.825 22.6654 41.825 28.973L41.822 41.8215ZM10.9204 15.198C10.0858 15.1982 9.26969 14.9508 8.5756 14.4872C7.88143 14.0236 7.34037 13.3645 7.02083 12.5934C6.70122 11.8223 6.61749 10.9737 6.7802 10.155C6.94287 9.33628 7.34469 8.58416 7.93484 7.99378C8.52499 7.40346 9.27689 7.00137 10.0956 6.83838C10.9142 6.67538 11.7629 6.75881 12.5341 7.0781C13.3054 7.3974 13.9646 7.93825 14.4285 8.63219C14.8923 9.32613 15.14 10.1421 15.1401 10.9768C15.1402 11.5311 15.0312 12.0799 14.8192 12.592C14.6072 13.1041 14.2964 13.5694 13.9045 13.9614C13.5127 14.3533 13.0475 14.6643 12.5355 14.8765C12.0235 15.0887 11.4747 15.1979 10.9204 15.198ZM14.5568 41.8215H7.27651V18.3995H14.5568V41.8215ZM45.4477 0.00334284H3.62197C2.67265 -0.00737031 1.7579 0.359248 1.07874 1.02264C0.399586 1.68602 0.0115864 2.59191 0 3.54122V45.5404C0.0111894 46.4902 0.39895 47.3967 1.07808 48.0608C1.75722 48.7249 2.67218 49.0923 3.62197 49.0821H45.4477C46.3994 49.0941 47.3169 48.7278 47.9987 48.0637C48.6805 47.3997 49.0709 46.4921 49.0841 45.5404V3.53819C49.0705 2.58699 48.6799 1.68008 47.9981 1.01671C47.3162 0.353339 46.3989 -0.0122327 45.4477 0.000312537V0.00334284Z" fill="#0A66C2"/>
</svg>
