<svg width="15" height="32" viewBox="0 0 15 32" fill="none" xmlns="http://www.w3.org/2000/svg">
<path d="M6.92825 0.0849609L7.7631 1.64429C7.9508 1.93205 8.15414 2.18675 8.39365 2.42395C9.09583 3.11352 9.75035 3.8495 10.3527 4.62684C11.7673 6.47393 12.7214 8.52516 13.4028 10.7436C13.8114 12.0988 14.0333 13.489 14.0499 14.8947C14.1184 19.0973 12.6696 22.7059 9.74858 25.705C9.27344 26.1806 8.76014 26.6169 8.21377 27.0096C7.9244 27.0096 7.78754 26.7889 7.66828 26.5858C7.45109 26.209 7.30654 25.7952 7.24205 25.3657C7.1394 24.8573 7.07195 24.3488 7.10519 23.8239V23.5867C7.08173 23.5361 6.82658 0.204535 6.92825 0.0849609V0.0849609Z" fill="#599636"/>
<path d="M6.9282 0.0334449C6.89399 -0.0346056 6.85977 0.0169183 6.82556 0.0499715C6.84218 0.390224 6.72291 0.693535 6.53619 0.983236C6.3309 1.27099 6.05913 1.49167 5.78639 1.72888C4.27113 3.0335 3.07848 4.60936 2.12338 6.37187C0.852527 8.74391 0.197547 11.2861 0.011806 13.9624C-0.0732437 14.9278 0.318767 18.3342 0.62475 19.317C1.45961 21.9263 2.95922 24.1126 4.90167 26.0103C5.37874 26.4672 5.88903 26.891 6.41693 27.2984C6.57041 27.2984 6.58703 27.1623 6.62222 27.0612C6.68951 26.8448 6.74081 26.6239 6.7757 26.4001L7.11786 23.8589L6.9282 0.0334449Z" fill="#6CAC48"/>
<path d="M7.763 28.0421C7.79722 27.6532 7.98492 27.3305 8.18923 27.0087C7.98394 26.9241 7.83143 26.7559 7.71217 26.5683C7.60933 26.3906 7.5242 26.2034 7.458 26.0093C7.21947 25.2977 7.16863 24.5511 7.1002 23.8239V23.3835C7.01515 23.4516 6.99755 24.0271 6.99755 24.1127C6.94781 24.8812 6.84525 25.6455 6.69059 26.4001C6.63976 26.7054 6.60554 27.0096 6.41687 27.2809C6.41687 27.3149 6.41687 27.3489 6.43349 27.3995C6.74045 28.2977 6.82452 29.2125 6.87633 30.1448V30.4851C6.87633 30.8914 6.85972 30.8059 7.19894 30.942C7.3358 30.9925 7.4883 31.01 7.62516 31.1111C7.72781 31.1111 7.74443 31.0266 7.74443 30.9585L7.6936 30.3995V28.8402C7.67698 28.568 7.72781 28.2977 7.76203 28.043L7.763 28.0421Z" fill="#C2BFBF"/>
</svg>
