<svg width="32" height="16" viewBox="0 0 32 16" fill="none" xmlns="http://www.w3.org/2000/svg">
<path fill-rule="evenodd" clip-rule="evenodd" d="M15.6425 15.7663C24.2816 15.7663 31.2849 12.2367 31.2849 7.88313C31.2849 3.52953 24.2816 0 15.6425 0C7.00353 0 0 3.52953 0 7.88313C0 12.2367 7.00353 15.7663 15.6425 15.7663Z" fill="#6E81B6"/>
<path fill-rule="evenodd" clip-rule="evenodd" d="M18.8126 10.4311L19.5885 6.45992C19.7637 5.56362 19.618 4.89511 19.1559 4.47263C18.7082 4.06389 17.9482 3.86506 16.8326 3.86506H15.4888L15.8732 1.89753C15.8804 1.86091 15.8794 1.82316 15.8702 1.78699C15.861 1.75081 15.8438 1.71711 15.82 1.68831C15.7961 1.6595 15.7662 1.6363 15.7322 1.62038C15.6983 1.60445 15.6612 1.59619 15.6237 1.59619H13.7691C13.6473 1.59619 13.5427 1.68215 13.5194 1.80103L12.6953 6.01694C12.6204 5.54255 12.4358 5.13475 12.1403 4.79823C11.5963 4.179 10.7358 3.86506 9.58259 3.86506H5.98795C5.86614 3.86506 5.76154 3.95103 5.73827 4.06972L4.07052 12.6035C4.05596 12.6778 4.07544 12.7542 4.12386 12.8125C4.17209 12.871 4.24397 12.9046 4.3202 12.9046H6.1894C6.31121 12.9046 6.41581 12.8187 6.43908 12.6996L6.84254 10.6356H8.23394C8.96406 10.6356 9.57767 10.5569 10.0566 10.4019C10.5463 10.2436 10.9971 9.97496 11.3943 9.60515C11.7153 9.3119 11.9805 8.98348 12.1846 8.62929L11.8515 10.3342C11.8369 10.4085 11.8564 10.4853 11.9048 10.5432C11.953 10.6017 12.0251 10.6354 12.1011 10.6354H13.9558C14.0776 10.6354 14.1822 10.5494 14.2055 10.4307L15.1208 5.74645H16.3934C16.9357 5.74645 17.0946 5.85386 17.1379 5.89994C17.177 5.94208 17.2584 6.09049 17.167 6.55829L16.4293 10.334C16.4222 10.3707 16.4234 10.4084 16.4327 10.4445C16.4419 10.4806 16.4591 10.5142 16.4829 10.543C16.5068 10.5718 16.5367 10.5949 16.5706 10.6109C16.6045 10.6268 16.6415 10.6351 16.679 10.6352H18.5631C18.6221 10.6353 18.6792 10.615 18.7248 10.5778C18.7703 10.5405 18.8014 10.4887 18.8126 10.4311V10.4311ZM10.2142 7.14987C10.0976 7.74521 9.87823 8.16976 9.56159 8.41184C9.24003 8.65844 8.72573 8.78334 8.03287 8.78334H7.20438L7.80343 5.71767H8.87459C9.66146 5.71767 9.97848 5.88489 10.1058 6.02503C10.2823 6.21953 10.3197 6.60871 10.2142 7.14987V7.14987ZM26.6248 4.79823C26.081 4.179 25.2205 3.86506 24.0673 3.86506H20.4726C20.3506 3.86506 20.2462 3.95103 20.2229 4.06972L18.5554 12.6035C18.5406 12.6778 18.5601 12.7542 18.6085 12.8125C18.6569 12.8708 18.729 12.9046 18.8047 12.9046H20.6741C20.7961 12.9046 20.9005 12.8187 20.9237 12.6996L21.3272 10.6356H22.7188C23.4491 10.6356 24.0621 10.5569 24.5413 10.4019C25.0312 10.2436 25.4819 9.97496 25.8789 9.60515C26.2103 9.3025 26.4829 8.96223 26.6895 8.59486C26.896 8.2275 27.0441 7.81782 27.1306 7.37691C27.343 6.2895 27.1729 5.42198 26.6248 4.79823V4.79823ZM24.8049 7.14987C24.6882 7.74521 24.4688 8.16976 24.1526 8.41184C23.8308 8.65844 23.3165 8.78334 22.6238 8.78334H21.7952L22.394 5.71767H23.4654C24.2522 5.71767 24.5693 5.88489 24.6967 6.02503C24.8728 6.21953 24.9105 6.60871 24.8049 7.14987V7.14987Z" fill="white"/>
<path fill-rule="evenodd" clip-rule="evenodd" d="M8.82144 5.46472C9.53152 5.46472 10.005 5.59508 10.2416 5.85578C10.478 6.11649 10.5344 6.56417 10.4107 7.19826C10.2813 7.85868 10.0324 8.33006 9.66354 8.61259C9.2947 8.89511 8.73329 9.03619 7.97971 9.03619H6.84253L7.5405 5.46472H8.82144ZM4.26685 12.6517H6.13605L6.57961 10.383H8.18078C8.88726 10.383 9.46853 10.3091 9.92476 10.1614C10.381 10.0137 10.7958 9.7664 11.169 9.41897C11.4822 9.13287 11.7357 8.81686 11.9298 8.47151C12.1237 8.12616 12.2614 7.74526 12.3429 7.32861C12.5407 6.31701 12.3915 5.52905 11.8955 4.96475C11.3998 4.40026 10.6108 4.11811 9.52943 4.11811H5.93479L4.26685 12.6517V12.6517ZM13.7157 1.84924H15.5704L15.127 4.11811H16.7794C17.8186 4.11811 18.5361 4.29831 18.9307 4.6589C19.3252 5.01949 19.4435 5.60392 19.2857 6.41181L18.5098 10.383H16.6257L17.3634 6.60706C17.4472 6.17744 17.4165 5.88456 17.2707 5.72825C17.1248 5.57213 16.8144 5.49388 16.34 5.49388H14.8578L13.9024 10.383H12.0478L13.7157 1.84924ZM23.4123 5.46472C24.1223 5.46472 24.5956 5.59508 24.8324 5.85578C25.0688 6.11649 25.125 6.56417 25.0013 7.19826C24.8723 7.85868 24.6234 8.33006 24.2544 8.61259C23.8857 8.89511 23.3241 9.03619 22.5709 9.03619H21.4337L22.1315 5.46472H23.4123V5.46472ZM18.8573 12.6517H20.7267L21.17 10.383H22.7712C23.4779 10.383 24.0592 10.3091 24.5154 10.1614C24.9716 10.0137 25.3864 9.7664 25.7596 9.41897C26.0729 9.13287 26.3263 8.81686 26.5202 8.47151C26.7141 8.12616 26.852 7.74526 26.9337 7.32861C27.1314 6.31701 26.9821 5.52905 26.4864 4.96475C25.9902 4.40026 25.2014 4.11811 24.1201 4.11811H20.5254L18.8573 12.6517V12.6517Z" fill="black"/>
</svg>
