<svg width="31" height="32" viewBox="0 0 31 32" fill="none" xmlns="http://www.w3.org/2000/svg">
<path d="M30.1811 18.6362C29.9992 18.0869 29.5227 17.7043 28.9066 17.6125C28.616 17.5693 28.2833 17.5877 27.8895 17.6686C27.2032 17.8098 26.6941 17.8636 26.3225 17.874C27.7251 15.5126 28.8656 12.8197 29.5221 10.2849C30.5838 6.18604 30.0165 4.31878 29.3535 3.47418C27.599 1.23861 25.0392 0.0376372 21.9511 0.000889701C20.3037 -0.0191973 18.8575 0.305149 18.1031 0.538395C17.4007 0.414801 16.6454 0.345796 15.8529 0.333035C14.3674 0.309403 13.0549 0.632332 11.9334 1.29603C11.3125 1.08665 10.316 0.791492 9.16517 0.603146C6.45859 0.16005 4.27716 0.505311 2.68155 1.62936C0.749429 2.99031 -0.146248 5.35491 0.0194028 8.65746C0.0720131 9.706 0.660205 12.8963 1.58633 15.9219C2.1186 17.6609 2.68617 19.1051 3.2733 20.2146C4.10594 21.7879 4.99687 22.7144 5.99706 23.0471C6.55764 23.2333 7.5762 23.3638 8.64748 22.474C8.78327 22.638 8.96444 22.801 9.20486 22.9523C9.51022 23.1444 9.88358 23.3013 10.2565 23.3943C11.6003 23.7292 12.859 23.6455 13.9329 23.1759C13.9395 23.3664 13.9446 23.5483 13.9489 23.7055C13.956 23.9604 13.9631 24.2103 13.9725 24.444C14.0361 26.0242 14.1439 27.253 14.4634 28.1127C14.4809 28.16 14.5045 28.232 14.5294 28.3085C14.6888 28.7951 14.9553 29.6097 15.6333 30.2476C16.3353 30.9085 17.1846 31.1111 17.9623 31.1111C18.3524 31.1111 18.7246 31.0601 19.051 30.9904C20.2146 30.7416 21.5362 30.3628 22.4921 29.0054C23.396 27.7222 23.8354 25.7895 23.9149 22.7441C23.9252 22.658 23.9347 22.5758 23.9438 22.4974L23.9627 22.3365L24.1757 22.3552L24.2305 22.3588C25.4157 22.4127 26.8648 22.1621 27.7548 21.7498C28.4581 21.4244 30.7117 20.238 30.1811 18.6362" fill="black"/>
<path d="M28.1547 18.9477C24.6308 19.6726 24.3884 18.4829 24.3884 18.4829C28.1091 12.9775 29.6645 5.9892 28.3224 4.27885C24.6605 -0.386671 18.3218 1.81983 18.216 1.87702L18.182 1.88317C17.4857 1.73901 16.7066 1.65323 15.8309 1.63893C14.2364 1.61294 13.0269 2.0558 12.109 2.74987C12.109 2.74987 0.801383 -1.89545 1.32737 8.59213C1.43922 10.8232 4.53422 25.4739 8.22571 21.0487C9.57498 19.4305 10.8787 18.0624 10.8787 18.0624C11.5262 18.4913 12.3014 18.7101 13.114 18.6315L13.1771 18.5781C13.1575 18.779 13.1665 18.9755 13.2024 19.2081C12.2513 20.2677 12.5309 20.4537 10.6298 20.8439C8.70608 21.2393 9.83613 21.9431 10.574 22.1272C11.4685 22.3501 13.5378 22.6661 14.936 20.7142L14.8803 20.9369C15.2529 21.2346 15.5145 22.8727 15.4706 24.3579C15.4268 25.8429 15.3975 26.8625 15.691 27.6589C15.9848 28.4553 16.2773 30.2472 18.7766 29.7132C20.8647 29.2669 21.9469 28.1105 22.0975 26.1814C22.2043 24.8101 22.4461 25.0128 22.4613 23.7867L22.6553 23.2063C22.8789 21.3473 22.6908 20.7475 23.9773 21.0265L24.2901 21.0539C25.2368 21.0968 26.4763 20.902 27.2037 20.5649C28.7699 19.8401 29.6989 18.6298 28.1545 18.9477H28.1547" fill="#336791"/>
<path d="M12.7709 9.58984C12.4534 9.54577 12.1658 9.58653 12.0203 9.69642C11.9385 9.75822 11.9132 9.82982 11.9063 9.87909C11.888 10.0097 11.9798 10.154 12.0362 10.2285C12.1956 10.4393 12.4286 10.5841 12.6592 10.616C12.6926 10.6208 12.7259 10.6229 12.759 10.6229C13.1435 10.6229 13.4931 10.3243 13.5239 10.1039C13.5624 9.82793 13.1606 9.64396 12.7709 9.58996V9.58984ZM23.2911 9.59859C23.2608 9.38224 22.8747 9.32056 22.5083 9.37137C22.1424 9.42218 21.7877 9.58689 21.8173 9.80371C21.841 9.97232 22.1463 10.2602 22.5077 10.2602C22.5383 10.2602 22.5691 10.2581 22.6002 10.2538C22.8414 10.2205 23.0184 10.0677 23.1026 9.97965C23.2305 9.84542 23.3047 9.69583 23.2911 9.59859" fill="white"/>
<path d="M29.3273 18.8653C29.1929 18.4602 28.7604 18.3298 28.0419 18.4778C25.9084 18.9169 25.1444 18.6127 24.8935 18.4285C26.5518 15.9094 27.916 12.8642 28.652 10.023C29.0006 8.67718 29.1931 7.42729 29.2089 6.40852C29.2263 5.29037 29.0353 4.46869 28.6414 3.96675C27.0534 1.94328 24.7227 0.857863 21.9014 0.828087C19.9618 0.806346 18.323 1.30132 18.0054 1.44051C17.3364 1.27461 16.607 1.17276 15.813 1.15976C14.357 1.13625 13.0984 1.48387 12.0564 2.19247C11.6037 2.02445 10.434 1.62401 9.00343 1.39419C6.53027 0.997173 4.56496 1.29801 3.1625 2.28877C1.48904 3.47108 0.716471 5.58447 0.866126 8.57012C0.916485 9.5746 1.49046 12.6647 2.39621 15.624C3.58847 19.519 4.88454 21.724 6.24814 22.1776C6.40775 22.2306 6.59177 22.2677 6.79474 22.2677C7.29217 22.2677 7.90205 22.0442 8.53657 21.2835C9.31051 20.3576 10.1111 19.4543 10.9373 18.5746C11.4734 18.8614 12.0623 19.0217 12.6646 19.0377C12.6658 19.0535 12.6673 19.0692 12.6687 19.0848C12.5651 19.2081 12.4635 19.3331 12.3642 19.4599C11.9469 19.9882 11.86 20.0982 10.5167 20.374C10.1346 20.4527 9.11967 20.6613 9.10474 21.3707C9.08862 22.1458 10.3045 22.4713 10.443 22.5058C10.9257 22.6264 11.3908 22.6858 11.8343 22.6858C12.9129 22.6858 13.8622 22.3323 14.6208 21.6482C14.5974 24.4115 14.713 27.1344 15.0457 27.964C15.3182 28.6432 15.9839 30.3029 18.0867 30.3028C18.3952 30.3028 18.7348 30.267 19.1084 30.1871C21.303 29.718 22.256 28.7508 22.6246 26.6184C22.8219 25.4787 23.1605 22.7574 23.3197 21.2977C23.6558 21.4022 24.0884 21.4501 24.5561 21.45C25.5315 21.45 26.657 21.2433 27.3629 20.9166C28.1558 20.5494 29.5868 19.6483 29.3273 18.8653V18.8653ZM24.1011 9.0014C24.0938 9.43233 24.0343 9.82356 23.9713 10.2319C23.9034 10.6711 23.8333 11.1252 23.8156 11.6764C23.7982 12.2129 23.8654 12.7706 23.9303 13.31C24.0616 14.3994 24.1963 15.521 23.6748 16.6276C23.5882 16.4746 23.5111 16.3164 23.4438 16.1539C23.379 15.9973 23.2382 15.7456 23.0433 15.3973C22.2851 14.0413 20.5095 10.8658 21.4184 9.57011C21.6892 9.18443 22.3763 8.78789 24.1011 9.0014V9.0014ZM22.0104 1.70069C24.5383 1.75635 26.538 2.69938 27.9537 4.50343C29.0396 5.8872 27.8439 12.1836 24.3824 17.6155C24.3475 17.5713 24.3126 17.5273 24.2774 17.4835L24.2335 17.4289C25.128 15.9558 24.9531 14.4983 24.7974 13.2061C24.7334 12.6758 24.673 12.1749 24.6884 11.7044C24.7043 11.2058 24.7704 10.778 24.8344 10.3645C24.913 9.85487 24.9929 9.32752 24.9709 8.70589C24.9874 8.64066 24.994 8.56362 24.9854 8.47217C24.9291 7.87606 24.2466 6.09197 22.8555 4.4772C22.0945 3.59396 20.9848 2.60556 19.4697 1.9389C20.1214 1.8042 21.0126 1.6786 22.0104 1.70069V1.70069ZM7.86508 20.7267C7.16598 21.5649 6.68324 21.4042 6.52446 21.3515C5.49003 21.0075 4.28971 18.8272 3.23146 15.3698C2.31575 12.3783 1.78065 9.37006 1.73823 8.52652C1.60457 5.85872 2.25307 3.99948 3.66585 3.00033C5.96506 1.37446 9.74519 2.34762 11.2641 2.84117C11.2423 2.86267 11.2196 2.88276 11.198 2.90462C8.70542 5.4148 8.76455 9.70351 8.77071 9.9657C8.77047 10.0668 8.77901 10.2101 8.79062 10.407C8.83351 11.1284 8.91338 12.4709 8.70009 13.9913C8.50197 15.4041 8.93873 16.7869 9.89816 17.7853C9.99662 17.8875 10.1001 17.9848 10.2083 18.0769C9.78121 18.533 8.85306 19.5416 7.86508 20.7267V20.7267ZM10.5287 17.1828C9.75538 16.3781 9.40417 15.2589 9.56496 14.1118C9.7901 12.5058 9.70703 11.107 9.66236 10.3555C9.65608 10.2503 9.65051 10.1582 9.64731 10.0855C10.0114 9.76353 11.6989 8.86198 12.9023 9.13693C13.4514 9.2623 13.786 9.63521 13.9251 10.2766C14.6451 13.5972 14.0204 14.9812 13.5184 16.0934C13.415 16.3226 13.3172 16.5391 13.2338 16.7632L13.1691 16.9364C13.0054 17.3743 12.853 17.7815 12.7586 18.1681C11.9365 18.1657 11.1368 17.8155 10.5287 17.1826V17.1828ZM10.6548 21.661C10.4148 21.6012 10.1989 21.4973 10.0722 21.4112C10.178 21.3616 10.3663 21.294 10.6929 21.2269C12.2732 20.9025 12.5173 20.6735 13.0503 19.9987C13.1724 19.8439 13.311 19.6686 13.5028 19.455L13.503 19.4547C13.7887 19.1357 13.9194 19.1898 14.1564 19.2879C14.3485 19.3671 14.5356 19.6072 14.6114 19.8714C14.6473 19.9961 14.6876 20.2329 14.5557 20.4173C13.4424 21.9718 11.82 21.9518 10.6548 21.661V21.661ZM18.9255 29.3357C16.9921 29.7488 16.3076 28.7651 15.8565 27.6406C15.5654 26.9146 15.4222 23.6409 15.5238 20.0256C15.5251 19.9775 15.5182 19.931 15.505 19.8873C15.4931 19.801 15.475 19.7156 15.4509 19.6318C15.3 19.1058 14.932 18.6658 14.4907 18.4833C14.3153 18.4109 13.9935 18.278 13.6067 18.3766C13.6892 18.0378 13.8322 17.655 13.9873 17.2407L14.0524 17.0664C14.1256 16.8699 14.2175 16.6663 14.3147 16.4508C14.84 15.2871 15.5593 13.6933 14.7786 10.0926C14.4862 8.74394 13.5096 8.08532 12.0291 8.23833C11.1416 8.32991 10.3296 8.68698 9.92458 8.89175C9.83749 8.93571 9.75787 8.97825 9.68345 9.0196C9.79649 7.66077 10.2235 5.12129 11.821 3.51456C12.8269 2.50311 14.1665 2.00354 15.7986 2.03048C19.0144 2.08294 21.0767 3.72866 22.2405 5.10014C23.2434 6.28185 23.7865 7.47231 24.0032 8.11438C22.3733 7.94908 21.2648 8.26988 20.7029 9.071C19.4805 10.8136 21.3717 14.1958 22.2807 15.8213C22.4474 16.1192 22.5912 16.3767 22.6365 16.4861C22.9325 17.2014 23.3157 17.679 23.5955 18.0276C23.6812 18.1344 23.7644 18.238 23.8277 18.3285C23.3341 18.4705 22.4474 18.7984 22.5282 20.4373C22.463 21.2597 21.9996 25.1101 21.7642 26.4704C21.4534 28.2676 20.7902 28.937 18.9255 29.3358V29.3357ZM26.9952 20.1268C26.4904 20.3604 25.6457 20.5356 24.8433 20.5733C23.957 20.6147 23.5058 20.4743 23.3996 20.3879C23.3498 19.3666 23.731 19.2599 24.1345 19.1469C24.1979 19.1292 24.2597 19.1118 24.3194 19.091C24.3565 19.1212 24.3972 19.1511 24.4417 19.1804C25.1541 19.6492 26.4247 19.6998 28.2185 19.3305L28.2382 19.3266C27.9962 19.5522 27.5822 19.8549 26.9952 20.1268Z" fill="white"/>
</svg>
