<svg width="32" height="32" viewBox="0 0 32 32" fill="none" xmlns="http://www.w3.org/2000/svg">
<path d="M22.9629 5.9259H24.4444C24.8592 5.9259 25.1851 6.25183 25.1851 6.66664C25.1851 7.08146 24.8592 7.40738 24.4444 7.40738H22.9629C22.5481 7.40738 22.2222 7.08146 22.2222 6.66664C22.2222 6.25183 22.5481 5.9259 22.9629 5.9259Z" fill="#56B3B4"/>
<path d="M0.74074 29.6296H8.14814C8.56295 29.6296 8.88888 29.9556 8.88888 30.3704C8.88888 30.7852 8.56295 31.1111 8.14814 31.1111H0.74074C0.325926 31.1111 0 30.7852 0 30.3704C0 29.9556 0.325926 29.6296 0.74074 29.6296Z" fill="#EA5E5E"/>
<path d="M18.5186 17.7778H22.963C23.3778 17.7778 23.7037 18.1037 23.7037 18.5185C23.7037 18.9333 23.3778 19.2592 22.963 19.2592H18.5186C18.1038 19.2592 17.7778 18.9333 17.7778 18.5185C17.7778 18.1037 18.1038 17.7778 18.5186 17.7778Z" fill="#BF85BF"/>
<path d="M9.62966 17.7778H15.5556C15.9704 17.7778 16.2963 18.1037 16.2963 18.5185C16.2963 18.9333 15.9704 19.2592 15.5556 19.2592H9.62966C9.21484 19.2592 8.88892 18.9333 8.88892 18.5185C8.88892 18.1037 9.21484 17.7778 9.62966 17.7778Z" fill="#EA5E5E"/>
<path d="M0.740741 17.7778H6.66667C7.08149 17.7778 7.40741 18.1037 7.40741 18.5185C7.40741 18.9333 7.08149 19.2592 6.66667 19.2592H0.740741C0.325926 19.2592 0 18.9333 0 18.5185C0 18.1037 0.325926 17.7778 0.740741 17.7778Z" fill="#56B3B4"/>
<path d="M0.74074 23.7037H8.14814C8.56295 23.7037 8.88888 24.0297 8.88888 24.4445C8.88888 24.8593 8.56295 25.1852 8.14814 25.1852H0.74074C0.325926 25.1852 0 24.8593 0 24.4445C0 24.0297 0.325926 23.7037 0.74074 23.7037Z" fill="#BF85BF"/>
<path d="M0.74074 11.8518H8.14814C8.56295 11.8518 8.88888 12.1777 8.88888 12.5926C8.88888 13.0074 8.56295 13.3333 8.14814 13.3333H0.74074C0.325926 13.3333 0 13.0074 0 12.5926C0 12.1777 0.325926 11.8518 0.74074 11.8518Z" fill="#BF85BF"/>
<path d="M8.14809 2.96301H22.9629C23.3777 2.96301 23.7036 3.28894 23.7036 3.70376C23.7036 4.11858 23.3777 4.4445 22.9629 4.4445H8.14809C7.73327 4.4445 7.40735 4.11858 7.40735 3.70376C7.40735 3.28894 7.73327 2.96301 8.14809 2.96301Z" fill="#F7BA3E"/>
<path d="M0.740741 2.96301H5.18518C5.6 2.96301 5.92592 3.28894 5.92592 3.70376C5.92592 4.11858 5.6 4.4445 5.18518 4.4445H0.740741C0.325926 4.4445 0 4.11858 0 3.70376C0 3.28894 0.325926 2.96301 0.740741 2.96301Z" fill="#EA5E5E"/>
<path d="M6.66665 26.6666H8.14814C8.56296 26.6666 8.88888 26.9926 8.88888 27.4074C8.88888 27.8222 8.56296 28.1481 8.14814 28.1481H6.66665C6.25183 28.1481 5.9259 27.8222 5.9259 27.4074C5.9259 26.9926 6.25183 26.6666 6.66665 26.6666Z" fill="#F7BA3E"/>
<path d="M6.66665 8.88892H8.14814C8.56296 8.88892 8.88888 9.21483 8.88888 9.62964C8.88888 10.0444 8.56296 10.3704 8.14814 10.3704H6.66665C6.25183 10.3704 5.9259 10.0444 5.9259 9.62964C5.9259 9.21483 6.25183 8.88892 6.66665 8.88892Z" fill="#56B3B4"/>
<path d="M0.740742 26.6666H3.70371C4.11853 26.6666 4.44445 26.9926 4.44445 27.4074C4.44445 27.8222 4.11853 28.1481 3.70371 28.1481H0.740742C0.325926 28.1481 0 27.8222 0 27.4074C0 26.9926 0.325926 26.6666 0.740742 26.6666Z" fill="#56B3B4"/>
<path d="M0.740742 8.88892H3.70371C4.11853 8.88892 4.44445 9.21483 4.44445 9.62964C4.44445 10.0444 4.11853 10.3704 3.70371 10.3704H0.740742C0.325926 10.3704 0 10.0444 0 9.62964C0 9.21483 0.325926 8.88892 0.740742 8.88892Z" fill="#F7BA3E"/>
<path opacity="0.5" d="M20 26.6666H21.4815C21.8963 26.6666 22.2222 26.9926 22.2222 27.4074C22.2222 27.8222 21.8963 28.1481 21.4815 28.1481H20C19.5852 28.1481 19.2593 27.8222 19.2593 27.4074C19.2593 26.9926 19.5852 26.6666 20 26.6666Z" fill="#D0D4D8"/>
<path opacity="0.5" d="M11.1111 26.6666H17.0371C17.4519 26.6666 17.7778 26.9926 17.7778 27.4074C17.7778 27.8222 17.4519 28.1481 17.0371 28.1481H11.1111C10.6963 28.1481 10.3704 27.8222 10.3704 27.4074C10.3704 26.9926 10.6963 26.6666 11.1111 26.6666Z" fill="#D0D4D8"/>
<path opacity="0.5" d="M24.4445 26.6666H30.3704C30.7852 26.6666 31.1112 26.9926 31.1112 27.4074C31.1112 27.8222 30.7852 28.1481 30.3704 28.1481H24.4445C24.0297 28.1481 23.7037 27.8222 23.7037 27.4074C23.7037 26.9926 24.0297 26.6666 24.4445 26.6666Z" fill="#D0D4D8"/>
<path d="M12.5925 14.8148H24.4444C24.8592 14.8148 25.1851 15.1407 25.1851 15.5555C25.1851 15.9703 24.8592 16.2963 24.4444 16.2963H12.5925C12.1777 16.2963 11.8518 15.9703 11.8518 15.5555C11.8518 15.1407 12.1777 14.8148 12.5925 14.8148Z" fill="#56B3B4"/>
<path d="M5.1852 14.8148H9.62964C10.0445 14.8148 10.3704 15.1407 10.3704 15.5555C10.3704 15.9703 10.0445 16.2963 9.62964 16.2963H5.1852C4.77038 16.2963 4.44446 15.9703 4.44446 15.5555C4.44446 15.1407 4.77038 14.8148 5.1852 14.8148Z" fill="#F7BA3E"/>
<path d="M0.740741 14.8148H2.22222C2.63704 14.8148 2.96297 15.1407 2.96297 15.5555C2.96297 15.9703 2.63704 16.2963 2.22222 16.2963H0.740741C0.325926 16.2963 0 15.9703 0 15.5555C0 15.1407 0.325926 14.8148 0.740741 14.8148Z" fill="#EA5E5E"/>
<path d="M14.0741 5.9259H20C20.4148 5.9259 20.7408 6.25183 20.7408 6.66664C20.7408 7.08146 20.4148 7.40738 20 7.40738H14.0741C13.6593 7.40738 13.3334 7.08146 13.3334 6.66664C13.3334 6.25183 13.6593 5.9259 14.0741 5.9259Z" fill="#BF85BF"/>
<path d="M0.74074 5.9259H11.1111C11.5259 5.9259 11.8518 6.25183 11.8518 6.66664C11.8518 7.08146 11.5259 7.40738 11.1111 7.40738H0.74074C0.325926 7.40738 0 7.08146 0 6.66664C0 6.25183 0.325926 5.9259 0.74074 5.9259Z" fill="#56B3B4"/>
<path d="M5.1852 20.7407H18.5186C18.9334 20.7407 19.2593 21.0666 19.2593 21.4815C19.2593 21.8963 18.9334 22.2222 18.5186 22.2222H5.1852C4.77038 22.2222 4.44446 21.8963 4.44446 21.4815C4.44446 21.0666 4.77038 20.7407 5.1852 20.7407Z" fill="#F7BA3E"/>
<path d="M0.740741 20.7407H2.22222C2.63704 20.7407 2.96297 21.0666 2.96297 21.4815C2.96297 21.8963 2.63704 22.2222 2.22222 22.2222H0.740741C0.325926 22.2222 0 21.8963 0 21.4815C0 21.0666 0.325926 20.7407 0.740741 20.7407Z" fill="#BF85BF"/>
<path d="M18.5186 8.88892H25.9259C26.3408 8.88892 26.6667 9.21483 26.6667 9.62964C26.6667 10.0444 26.3408 10.3704 25.9259 10.3704H18.5186C18.1038 10.3704 17.7778 10.0444 17.7778 9.62964C17.7778 9.21483 18.1038 8.88892 18.5186 8.88892Z" fill="#EA5E5E"/>
<path d="M18.5186 11.8518H25.9259C26.3408 11.8518 26.6667 12.1777 26.6667 12.5926C26.6667 13.0074 26.3408 13.3333 25.9259 13.3333H18.5186C18.1038 13.3333 17.7778 13.0074 17.7778 12.5926C17.7778 12.1777 18.1038 11.8518 18.5186 11.8518Z" fill="#F7BA3E"/>
<path d="M0.740741 0H18.5185C18.9333 0 19.2593 0.325926 19.2593 0.740741C19.2593 1.15556 18.9333 1.48148 18.5185 1.48148H0.740741C0.325926 1.48148 0 1.15556 0 0.740741C0 0.325926 0.325926 0 0.740741 0Z" fill="#56B3B4"/>
<path opacity="0.5" d="M21.4815 0H30.3704C30.7852 0 31.1111 0.325926 31.1111 0.740741C31.1111 1.15556 30.7852 1.48148 30.3704 1.48148H21.4815C21.0666 1.48148 20.7407 1.15556 20.7407 0.740741C20.7407 0.325926 21.0666 0 21.4815 0Z" fill="#D0D4D8"/>
<path opacity="0.5" d="M21.4815 20.7407H24.4444C24.8592 20.7407 25.1852 21.0666 25.1852 21.4815C25.1852 21.8963 24.8592 22.2222 24.4444 22.2222H21.4815C21.0666 22.2222 20.7407 21.8963 20.7407 21.4815C20.7407 21.0666 21.0666 20.7407 21.4815 20.7407Z" fill="#D0D4D8"/>
<path opacity="0.5" d="M27.4074 20.7407H30.3703C30.7852 20.7407 31.1111 21.0666 31.1111 21.4815C31.1111 21.8963 30.7852 22.2222 30.3703 22.2222H27.4074C26.9926 22.2222 26.6666 21.8963 26.6666 21.4815C26.6666 21.0666 26.9926 20.7407 27.4074 20.7407Z" fill="#D0D4D8"/>
<path opacity="0.5" d="M25.9259 17.7778H30.3704C30.7852 17.7778 31.1111 18.1037 31.1111 18.5185C31.1111 18.9333 30.7852 19.2592 30.3704 19.2592H25.9259C25.5111 19.2592 25.1852 18.9333 25.1852 18.5185C25.1852 18.1037 25.5111 17.7778 25.9259 17.7778Z" fill="#D0D4D8"/>
<path opacity="0.5" d="M25.9259 2.96301H30.3704C30.7852 2.96301 31.1111 3.28894 31.1111 3.70376C31.1111 4.11858 30.7852 4.4445 30.3704 4.4445H25.9259C25.5111 4.4445 25.1852 4.11858 25.1852 3.70376C25.1852 3.28894 25.5111 2.96301 25.9259 2.96301Z" fill="#D0D4D8"/>
<path opacity="0.5" d="M27.4074 14.8148H30.3703C30.7852 14.8148 31.1111 15.1407 31.1111 15.5555C31.1111 15.9703 30.7852 16.2963 30.3703 16.2963H27.4074C26.9926 16.2963 26.6666 15.9703 26.6666 15.5555C26.6666 15.1407 26.9926 14.8148 27.4074 14.8148Z" fill="#D0D4D8"/>
<path opacity="0.5" d="M27.4074 5.9259H30.3703C30.7852 5.9259 31.1111 6.25183 31.1111 6.66664C31.1111 7.08146 30.7852 7.40738 30.3703 7.40738H27.4074C26.9926 7.40738 26.6666 7.08146 26.6666 6.66664C26.6666 6.25183 26.9926 5.9259 27.4074 5.9259Z" fill="#D0D4D8"/>
<path opacity="0.5" d="M28.8889 8.88892H30.3704C30.7852 8.88892 31.1112 9.21483 31.1112 9.62964C31.1112 10.0444 30.7852 10.3704 30.3704 10.3704H28.8889C28.4741 10.3704 28.1482 10.0444 28.1482 9.62964C28.1482 9.21483 28.4741 8.88892 28.8889 8.88892Z" fill="#D0D4D8"/>
<path opacity="0.5" d="M28.8889 11.8518H30.3704C30.7852 11.8518 31.1112 12.1777 31.1112 12.5926C31.1112 13.0074 30.7852 13.3333 30.3704 13.3333H28.8889C28.4741 13.3333 28.1482 13.0074 28.1482 12.5926C28.1482 12.1777 28.4741 11.8518 28.8889 11.8518Z" fill="#D0D4D8"/>
<path opacity="0.5" d="M17.0371 23.7037H30.3704C30.7852 23.7037 31.1112 24.0297 31.1112 24.4445C31.1112 24.8593 30.7852 25.1852 30.3704 25.1852H17.0371C16.6223 25.1852 16.2964 24.8593 16.2964 24.4445C16.2964 24.0297 16.6223 23.7037 17.0371 23.7037Z" fill="#D0D4D8"/>
<path opacity="0.5" d="M11.1111 23.7037H14.0741C14.4889 23.7037 14.8148 24.0297 14.8148 24.4445C14.8148 24.8593 14.4889 25.1852 14.0741 25.1852H11.1111C10.6963 25.1852 10.3704 24.8593 10.3704 24.4445C10.3704 24.0297 10.6963 23.7037 11.1111 23.7037Z" fill="#D0D4D8"/>
<path opacity="0.5" d="M22.9629 29.6296H30.3704C30.7852 29.6296 31.1111 29.9556 31.1111 30.3704C31.1111 30.7852 30.7852 31.1111 30.3704 31.1111H22.9629C22.5481 31.1111 22.2222 30.7852 22.2222 30.3704C22.2222 29.9556 22.5481 29.6296 22.9629 29.6296Z" fill="#D0D4D8"/>
<path opacity="0.5" d="M11.1111 29.6296H20C20.4148 29.6296 20.7407 29.9556 20.7407 30.3704C20.7407 30.7852 20.4148 31.1111 20 31.1111H11.1111C10.6963 31.1111 10.3704 30.7852 10.3704 30.3704C10.3704 29.9556 10.6963 29.6296 11.1111 29.6296Z" fill="#D0D4D8"/>
<path opacity="0.5" d="M11.1111 8.88892H15.5556C15.9704 8.88892 16.2963 9.21483 16.2963 9.62964C16.2963 10.0444 15.9704 10.3704 15.5556 10.3704H11.1111C10.6963 10.3704 10.3704 10.0444 10.3704 9.62964C10.3704 9.21483 10.6963 8.88892 11.1111 8.88892Z" fill="#D0D4D8"/>
<path opacity="0.5" d="M11.1111 11.8518H15.5556C15.9704 11.8518 16.2963 12.1777 16.2963 12.5926C16.2963 13.0074 15.9704 13.3333 15.5556 13.3333H11.1111C10.6963 13.3333 10.3704 13.0074 10.3704 12.5926C10.3704 12.1777 10.6963 11.8518 11.1111 11.8518Z" fill="#D0D4D8"/>
</svg>
