<svg width="32" height="34" viewBox="0 0 32 34" fill="none" xmlns="http://www.w3.org/2000/svg">
<path d="M15.7999 19.6612C17.3232 19.6612 18.5581 18.4332 18.5581 16.9184C18.5581 15.4035 17.3232 14.1755 15.7999 14.1755C14.2766 14.1755 13.0417 15.4035 13.0417 16.9184C13.0417 18.4332 14.2766 19.6612 15.7999 19.6612Z" fill="#61DAFB"/>
<path fill-rule="evenodd" clip-rule="evenodd" d="M2.83106 15.4751C2.20559 16.0366 2 16.5261 2 16.9183C2 17.3104 2.20559 17.8 2.83106 18.3615C3.45612 18.9226 4.41702 19.4737 5.68974 19.957C8.22816 20.9208 11.8024 21.5377 15.7998 21.5377C19.7973 21.5377 23.3715 20.9208 25.9099 19.957C27.1827 19.4737 28.1436 18.9226 28.7686 18.3615C29.3941 17.8 29.5997 17.3104 29.5997 16.9183C29.5997 16.5261 29.3941 16.0366 28.7686 15.4751C28.1436 14.914 27.1827 14.3629 25.9099 13.8796C23.3715 12.9158 19.7973 12.2988 15.7998 12.2988C11.8024 12.2988 8.22816 12.9158 5.68974 13.8796C4.41702 14.3629 3.45612 14.914 2.83106 15.4751ZM4.9798 12.0098C7.79787 10.9398 11.6236 10.2988 15.7998 10.2988C19.9761 10.2988 23.8018 10.9398 26.6199 12.0098C28.0254 12.5435 29.2319 13.2033 30.1046 13.9868C30.977 14.7699 31.5997 15.7587 31.5997 16.9183C31.5997 18.0779 30.977 19.0667 30.1046 19.8498C29.2319 20.6333 28.0254 21.293 26.6199 21.8267C23.8018 22.8967 19.9761 23.5377 15.7998 23.5377C11.6236 23.5377 7.79787 22.8967 4.9798 21.8267C3.57428 21.293 2.3678 20.6333 1.49502 19.8498C0.622674 19.0667 0 18.0779 0 16.9183C0 15.7587 0.622674 14.7699 1.49502 13.9868C2.3678 13.2033 3.57428 12.5435 4.9798 12.0098Z" fill="#61DAFB"/>
<path fill-rule="evenodd" clip-rule="evenodd" d="M10.5803 5.02993C9.77963 4.77233 9.24775 4.83875 8.90199 5.03727C8.55623 5.23578 8.23245 5.66063 8.05643 6.47901C7.88039 7.29744 7.88091 8.39978 8.09629 9.73663C8.52589 12.4032 9.77513 15.7884 11.7733 19.2301C13.7714 22.6718 16.0949 25.4402 18.2023 27.1435C19.2588 27.9974 20.2185 28.549 21.0193 28.8066C21.82 29.0642 22.3519 28.9978 22.6976 28.7993C23.0434 28.6008 23.3672 28.1759 23.5432 27.3576C23.7192 26.5391 23.7187 25.4368 23.5033 24.0999C23.0737 21.4334 21.8245 18.0481 19.8264 14.6065C17.8282 11.1648 15.5047 8.39632 13.3973 6.69307C12.3408 5.83915 11.3811 5.28754 10.5803 5.02993ZM14.6581 5.14462C17.0001 7.03753 19.4721 10.013 21.5608 13.6106C23.6495 17.2083 25.0048 20.8249 25.4822 23.7884C25.7203 25.2665 25.749 26.6362 25.503 27.7801C25.2569 28.9239 24.7074 29.9516 23.7018 30.5289C22.6962 31.1063 21.5265 31.0657 20.4074 30.7057C19.2882 30.3456 18.1098 29.6361 16.9416 28.6919C14.5995 26.799 12.1275 23.8236 10.0388 20.2259C7.95009 16.6282 6.59488 13.0116 6.11744 10.0482C5.8793 8.57002 5.85064 7.20032 6.09666 6.05651C6.34269 4.91263 6.89219 3.88501 7.89781 3.30764C8.90343 2.73027 10.0731 2.77084 11.1923 3.1309C12.3114 3.49093 13.4899 4.20046 14.6581 5.14462Z" fill="#61DAFB"/>
<path fill-rule="evenodd" clip-rule="evenodd" d="M23.5433 6.47896C23.3672 5.66059 23.0435 5.23574 22.6977 5.03723C22.3519 4.83871 21.8201 4.77229 21.0194 5.02988C20.2186 5.2875 19.2589 5.83911 18.2023 6.69303C16.095 8.39628 13.7715 11.1648 11.7733 14.6064C9.77519 18.0481 8.52595 21.4333 8.09635 24.0999C7.88097 25.4367 7.88045 26.5391 8.05649 27.3575C8.23251 28.1759 8.55629 28.6007 8.90205 28.7993C9.24781 28.9978 9.77969 29.0642 10.5804 28.8066C11.3812 28.549 12.3409 27.9974 13.3974 27.1435C15.5048 25.4402 17.8283 22.6717 19.8264 19.2301C21.8246 15.7884 23.0738 12.4031 23.5034 9.73659C23.7188 8.39973 23.7193 7.2974 23.5433 6.47896ZM25.4823 10.0481C25.0048 13.0116 23.6496 16.6282 21.5609 20.2259C19.4722 23.8235 17.0002 26.799 14.6581 28.6919C13.4899 29.6361 12.3114 30.3456 11.1923 30.7056C10.0732 31.0657 8.90349 31.1063 7.89787 30.5289C6.89225 29.9515 6.34275 28.9239 6.09672 27.78C5.8507 26.6362 5.87936 25.2665 6.1175 23.7884C6.59494 20.8249 7.95015 17.2083 10.0389 13.6106C12.1276 10.0129 14.5996 7.03748 16.9416 5.14458C18.1098 4.20041 19.2883 3.49088 20.4074 3.13085C21.5266 2.7708 22.6963 2.73023 23.7019 3.3076C24.7075 3.88497 25.257 4.91259 25.503 6.05646C25.7491 7.20028 25.7204 8.56997 25.4823 10.0481Z" fill="#61DAFB"/>
</svg>
