<svg width="50" height="50" viewBox="0 0 50 50" fill="none" xmlns="http://www.w3.org/2000/svg">
<path d="M10.433 31.2598C10.433 34.1339 8.11017 36.4567 5.23616 36.4567C2.36214 36.4567 0.0393066 34.1339 0.0393066 31.2598C0.0393066 28.3858 2.36214 26.063 5.23616 26.063H10.433V31.2598ZM13.0314 31.2598C13.0314 28.3858 15.3543 26.063 18.2283 26.063C21.1023 26.063 23.4251 28.3858 23.4251 31.2598V44.252C23.4251 47.126 21.1023 49.4488 18.2283 49.4488C15.3543 49.4488 13.0314 47.126 13.0314 44.252V31.2598Z" fill="#E01E5A"/>
<path d="M18.2283 10.3937C15.3543 10.3937 13.0315 8.07087 13.0315 5.19685C13.0315 2.32283 15.3543 0 18.2283 0C21.1024 0 23.4252 2.32283 23.4252 5.19685V10.3937H18.2283ZM18.2283 13.0315C21.1024 13.0315 23.4252 15.3543 23.4252 18.2283C23.4252 21.1024 21.1024 23.4252 18.2283 23.4252H5.19685C2.32283 23.4252 0 21.1024 0 18.2283C0 15.3543 2.32283 13.0315 5.19685 13.0315H18.2283Z" fill="#36C5F0"/>
<path d="M39.0551 18.2283C39.0551 15.3543 41.3779 13.0315 44.252 13.0315C47.126 13.0315 49.4488 15.3543 49.4488 18.2283C49.4488 21.1024 47.126 23.4252 44.252 23.4252H39.0551V18.2283ZM36.4567 18.2283C36.4567 21.1024 34.1339 23.4252 31.2598 23.4252C28.3858 23.4252 26.063 21.1024 26.063 18.2283V5.19685C26.063 2.32283 28.3858 0 31.2598 0C34.1339 0 36.4567 2.32283 36.4567 5.19685V18.2283V18.2283Z" fill="#2EB67D"/>
<path d="M31.2598 39.0551C34.1339 39.0551 36.4567 41.3779 36.4567 44.252C36.4567 47.126 34.1339 49.4488 31.2598 49.4488C28.3858 49.4488 26.063 47.126 26.063 44.252V39.0551H31.2598ZM31.2598 36.4567C28.3858 36.4567 26.063 34.1339 26.063 31.2598C26.063 28.3858 28.3858 26.063 31.2598 26.063H44.2913C47.1653 26.063 49.4882 28.3858 49.4882 31.2598C49.4882 34.1339 47.1653 36.4567 44.2913 36.4567H31.2598Z" fill="#ECB22E"/>
</svg>
