<svg width="32" height="32" viewBox="0 0 32 32" fill="none" xmlns="http://www.w3.org/2000/svg">
<path d="M0 0H31.1111V31.1111H0V0Z" fill="#017ACB"/>
<path d="M14.9382 11.5209H16.4306V14.0973H12.3959V25.5598L12.2889 25.5889C12.1431 25.6278 10.2229 25.6278 9.80974 25.5841L9.47919 25.5549V14.0973H5.44446V11.5209L6.72293 11.5063C7.42293 11.4966 9.22155 11.4966 10.7188 11.5063C12.216 11.516 14.1118 11.5209 14.9382 11.5209V11.5209ZM26.3278 24.3445C25.7348 24.9716 25.098 25.3216 24.0382 25.6084C23.5764 25.7348 23.4987 25.7396 22.4584 25.7348C21.4181 25.7299 21.3355 25.7299 20.8299 25.5987C19.5223 25.2632 18.4674 24.607 17.748 23.6785C17.5438 23.416 17.2084 22.8716 17.2084 22.8035C17.2084 22.7841 17.257 22.7403 17.3202 22.7112C17.3834 22.682 17.5146 22.5994 17.6216 22.5362C17.7285 22.473 17.923 22.3563 18.0542 22.2882C18.1855 22.2202 18.5646 21.9966 18.8952 21.7973C19.2257 21.598 19.5271 21.4375 19.5611 21.4375C19.5952 21.4375 19.6584 21.5056 19.707 21.5882C19.9986 22.0792 20.6792 22.7063 21.1605 22.9202C21.457 23.0466 22.1132 23.1875 22.4292 23.1875C22.7209 23.1875 23.2556 23.0612 23.5424 22.9299C23.8487 22.7889 24.0042 22.648 24.1889 22.366C24.3153 22.1667 24.3299 22.1132 24.325 21.7341C24.325 21.3841 24.3056 21.2869 24.2084 21.1264C23.9362 20.6792 23.5667 20.4459 22.0695 19.7848C20.5237 19.0994 19.8285 18.691 19.2646 18.1417C18.8466 17.7334 18.7639 17.6216 18.5014 17.1112C18.1611 16.4549 18.1174 16.241 18.1125 15.2639C18.1077 14.5785 18.1223 14.3549 18.1952 14.1216C18.2973 13.7716 18.6278 13.0959 18.7785 12.9257C19.0896 12.5612 19.2014 12.4494 19.4202 12.2695C20.0813 11.725 21.1118 11.3653 22.0987 11.3313C22.2105 11.3313 22.5799 11.3507 22.925 11.375C23.9167 11.4577 24.5924 11.7007 25.2438 12.2209C25.7348 12.6098 26.4785 13.5237 26.4056 13.6452C26.357 13.7181 24.4174 15.0112 24.291 15.05C24.2132 15.0744 24.1598 15.0452 24.0528 14.9188C23.3917 14.1264 23.1243 13.9563 22.4827 13.9174C22.0257 13.8882 21.7827 13.9417 21.4764 14.1459C21.1556 14.3598 21 14.6855 21 15.1375C21.0049 15.7987 21.2577 16.1098 22.191 16.5716C22.7938 16.8681 23.3091 17.1112 23.348 17.1112C23.4063 17.1112 24.6556 17.7334 24.9813 17.9278C26.498 18.8174 27.1153 19.7313 27.2757 21.3063C27.3924 22.4924 27.057 23.5764 26.3278 24.3445V24.3445Z" fill="white"/>
</svg>
