<svg width="31" height="32" viewBox="0 0 31 32" fill="none" xmlns="http://www.w3.org/2000/svg">
<path d="M30.6117 4.60479L16.1841 30.7051C15.8862 31.244 15.1209 31.2471 14.8185 30.7109L0.104938 4.60722C-0.22451 4.02292 0.269423 3.31506 0.924 3.43352L15.3671 6.04515C15.4592 6.06181 15.5535 6.06164 15.6456 6.04466L29.7866 3.43716C30.439 3.31688 30.9352 4.01928 30.6117 4.60479V4.60479Z" fill="url(#paint0_linear_105_139)"/>
<path d="M22.247 0.00765978L11.5702 2.1242C11.4849 2.14111 11.4076 2.18622 11.3504 2.25244C11.2932 2.31866 11.2594 2.40224 11.2542 2.49003L10.5975 13.7119C10.5939 13.7735 10.6045 13.835 10.6285 13.8917C10.6525 13.9483 10.6893 13.9986 10.7358 14.0384C10.7823 14.0782 10.8374 14.1064 10.8967 14.1209C10.9559 14.1354 11.0176 14.1358 11.077 14.1219L14.0496 13.4279C14.3277 13.363 14.5791 13.6108 14.5218 13.8937L13.6387 18.269C13.5793 18.5634 13.8525 18.8151 14.1367 18.7278L15.9728 18.1635C16.2574 18.0761 16.5309 18.3285 16.4707 18.6232L15.0672 25.4956C14.9794 25.9256 15.5446 26.1599 15.7803 25.7914L15.9378 25.5453L24.6378 7.97984C24.7836 7.68575 24.5322 7.35039 24.2131 7.41277L21.1532 8.01018C20.8657 8.06626 20.6211 7.79535 20.7022 7.51084L22.6993 0.506877C22.7805 0.221645 22.5349 -0.0493867 22.2471 0.00765978H22.247Z" fill="url(#paint1_linear_105_139)"/>
<defs>
<linearGradient id="paint0_linear_105_139" x1="-0.254306" y1="5.53931" x2="15.5408" y2="26.7428" gradientUnits="userSpaceOnUse">
<stop stop-color="#41D1FF"/>
<stop offset="1" stop-color="#BD34FE"/>
</linearGradient>
<linearGradient id="paint1_linear_105_139" x1="16.7056" y1="0.582344" x2="19.9803" y2="22.7861" gradientUnits="userSpaceOnUse">
<stop stop-color="#FFEA83"/>
<stop offset="0.083" stop-color="#FFDD35"/>
<stop offset="1" stop-color="#FFA800"/>
</linearGradient>
</defs>
</svg>
