<svg width="32" height="31" viewBox="0 0 32 31" fill="none" xmlns="http://www.w3.org/2000/svg">
<path d="M0.295996 10.7329C0.295996 10.7329 -0.461754 10.1867 0.447546 9.45735L2.56609 7.56298C2.56609 7.56298 3.17229 6.9252 3.81322 7.48089L23.3632 22.2823V29.3799C23.3632 29.3799 23.3537 30.4944 21.9234 30.3713L0.295996 10.7329Z" fill="#2489CA"/>
<path d="M5.33509 15.3079L0.29605 19.8891C0.29605 19.8891 -0.221747 20.2743 0.29605 20.9626L2.63561 23.0906C2.63561 23.0906 3.19129 23.6873 4.01219 23.0085L9.35433 18.9577L5.33509 15.3079Z" fill="#1070B3"/>
<path d="M14.1818 15.3457L23.4232 8.28912L23.3632 1.2294C23.3632 1.2294 22.9685 -0.311366 21.6519 0.490588L9.35425 11.6832L14.1818 15.3457Z" fill="#0877B9"/>
<path d="M21.9235 30.3807C22.4602 30.9301 23.1106 30.7501 23.1106 30.7501L30.3124 27.2013C31.2344 26.573 31.1049 25.7932 31.1049 25.7932V4.6014C31.1049 3.66999 30.1514 3.34795 30.1514 3.34795L23.9094 0.339044C22.5455 -0.503955 21.652 0.490594 21.652 0.490594C21.652 0.490594 22.8012 -0.336618 23.3632 1.2294V29.2504C23.3632 29.443 23.3222 29.6325 23.2401 29.803C23.0759 30.1345 22.7191 30.4439 21.8635 30.3144L21.9235 30.3807Z" fill="#3C99D4"/>
</svg>
