<svg width="50" height="38" viewBox="0 0 50 38" fill="none" xmlns="http://www.w3.org/2000/svg">
<path d="M23.0246 9.97537V37.7734H0L23.0246 9.97537ZM23.0246 0C23.0246 3.05325 21.8117 5.98145 19.6527 8.14044C17.4938 10.2994 14.5656 11.5123 11.5123 11.5123C8.45907 11.5123 5.53087 10.2994 3.37188 8.14044C1.2129 5.98145 0 3.05325 0 0H23.0246ZM26.8177 37.7759C26.8177 34.7227 28.0305 31.7943 30.1897 29.6355C32.3485 27.4764 35.2769 26.2635 38.3301 26.2635C41.3833 26.2635 44.3116 27.4764 46.4704 29.6355C48.6296 31.7943 49.8424 34.7227 49.8424 37.7759H26.8177ZM26.8177 27.8005V0H49.8473L26.8177 27.798V27.8005Z" fill="#03363D"/>
</svg>
